<svg width="16" height="16" viewBox="0 0 16 16" fill="none" xmlns="http://www.w3.org/2000/svg">
<path d="M0.666748 0.666748H3.33341L5.12008 9.59342C5.18104 9.90035 5.34802 10.1761 5.59178 10.3723C5.83554 10.5685 6.14055 10.6727 6.45341 10.6667H12.9334C13.2463 10.6727 13.5513 10.5685 13.7951 10.3723C14.0388 10.1761 14.2058 9.90035 14.2667 9.59342L15.3334 4.00008H4.00008M14.0001 14.0001C14.0001 14.3683 13.7016 14.6667 13.3334 14.6667C12.9652 14.6667 12.6667 14.3683 12.6667 14.0001C12.6667 13.6319 12.9652 13.3334 13.3334 13.3334C13.7016 13.3334 14.0001 13.6319 14.0001 14.0001ZM6.66675 14.0001C6.66675 14.3683 6.36827 14.6667 6.00008 14.6667C5.63189 14.6667 5.33342 14.3683 5.33342 14.0001C5.33342 13.6319 5.63189 13.3334 6.00008 13.3334C6.36827 13.3334 6.66675 13.6319 6.66675 14.0001Z" stroke="#111212" stroke-width="1.33333" stroke-linecap="round" stroke-linejoin="round"/>
</svg>
